;<svg width="17" height="15" viewBox="0 0 17 15" fill="none" xmlns="http://www.w3.org/2000/svg">
  <path
    d="M3.35854 1L7.07661 4.25M1.12769 8.15H12.2819M13.7692 6.85L7.82023 1.65L1.42514 7.24C1.15263 7.48301 1 7.80972 1 8.15C1 8.49028 1.15263 8.81699 1.42514 9.06L5.29194 12.44C5.88683 12.96 6.77917 12.96 7.37406 12.44L13.7692 6.85ZM16 12.7C16 13.0448 15.8433 13.3754 15.5644 13.6192C15.2855 13.863 14.9072 14 14.5128 14C14.1183 14 13.74 13.863 13.4611 13.6192C13.1822 13.3754 13.0255 13.0448 13.0255 12.7C13.0255 11.66 14.2897 11.14 14.5128 10.1C14.7359 11.14 16 11.66 16 12.7Z"
    stroke="#494949"
    stroke-linecap="round"
    stroke-linejoin="round"
  />
</svg>
