;<svg width="24" height="20" viewBox="0 0 24 20" fill="none" xmlns="http://www.w3.org/2000/svg">
  <path d="M3.072 12.344V7.256H3.828V12.344H3.072ZM0.84 10.16V9.452H6.06V10.16H0.84Z" fill="#494949" />
  <path
    d="M12.5 2C12.1897 1.99984 11.8869 2.09593 11.6335 2.27503C11.3801 2.45413 11.1884 2.70742 11.085 3H9.5C9.10218 3 8.72064 3.15804 8.43934 3.43934C8.15804 3.72064 8 4.10218 8 4.5V16.5C8 16.8978 8.15804 17.2794 8.43934 17.5607C8.72064 17.842 9.10218 18 9.5 18H13.151C13 17.6894 12.9608 17.3362 13.04 17H9.5C9.36739 17 9.24021 16.9473 9.14645 16.8536C9.05268 16.7598 9 16.6326 9 16.5V4.5C9 4.36739 9.05268 4.24022 9.14645 4.14645C9.24021 4.05268 9.36739 4 9.5 4H11.085C11.1884 4.29258 11.3801 4.54587 11.6335 4.72497C11.8869 4.90407 12.1897 5.00016 12.5 5H15.5C15.8103 5.00016 16.1131 4.90407 16.3665 4.72497C16.6199 4.54587 16.8116 4.29258 16.915 4H18.5C18.6326 4 18.7598 4.05268 18.8536 4.14645C18.9473 4.24022 19 4.36739 19 4.5V8.07C19.2307 8.12267 19.4573 8.205 19.68 8.317C19.7956 8.37523 19.9031 8.44817 20 8.534V4.5C20 4.10218 19.842 3.72064 19.5607 3.43934C19.2794 3.15804 18.8978 3 18.5 3H16.915C16.8116 2.70742 16.6199 2.45413 16.3665 2.27503C16.1131 2.09593 15.8103 1.99984 15.5 2H12.5ZM12 3.5C12 3.36739 12.0527 3.24022 12.1464 3.14645C12.2402 3.05268 12.3674 3 12.5 3H15.5C15.6326 3 15.7598 3.05268 15.8536 3.14645C15.9473 3.24022 16 3.36739 16 3.5C16 3.63261 15.9473 3.75979 15.8536 3.85355C15.7598 3.94732 15.6326 4 15.5 4H12.5C12.3674 4 12.2402 3.94732 12.1464 3.85355C12.0527 3.75979 12 3.63261 12 3.5ZM16.451 10.777C16.4742 10.4622 16.5747 10.158 16.7438 9.89139C16.9128 9.62482 17.1451 9.40414 17.42 9.24898C17.6949 9.09381 18.0039 9.00898 18.3195 9.002C18.6351 8.99503 18.9475 9.06613 19.229 9.209C19.3465 9.26938 19.4353 9.37382 19.4761 9.4995C19.5168 9.62518 19.5062 9.76187 19.4465 9.87973C19.3868 9.99758 19.2828 10.087 19.1574 10.1285C19.0319 10.1699 18.8952 10.1601 18.777 10.101C18.6424 10.0327 18.493 9.99874 18.3421 10.0021C18.1912 10.0055 18.0435 10.0461 17.9121 10.1203C17.7807 10.1945 17.6696 10.3 17.5889 10.4275C17.5081 10.555 17.46 10.7005 17.449 10.851L17.362 12.023H18.5C18.6326 12.023 18.7598 12.0757 18.8536 12.1694C18.9473 12.2632 19 12.3904 19 12.523C19 12.6556 18.9473 12.7828 18.8536 12.8766C18.7598 12.9703 18.6326 13.023 18.5 13.023H17.288L17.051 16.223C17.0276 16.5376 16.9269 16.8415 16.7579 17.1079C16.5888 17.3742 16.3566 17.5947 16.0819 17.7497C15.8071 17.9047 15.4984 17.9895 15.183 17.9965C14.8676 18.0036 14.5554 17.9326 14.274 17.79C14.215 17.7605 14.1625 17.7197 14.1194 17.6699C14.0763 17.6201 14.0434 17.5622 14.0227 17.4996C14.0021 17.4371 13.9939 17.371 13.9989 17.3053C14.0038 17.2396 14.0217 17.1755 14.0515 17.1167C14.0813 17.0579 14.1224 17.0056 14.1724 16.9628C14.2225 16.9199 14.2806 16.8874 14.3433 16.8671C14.4059 16.8468 14.472 16.839 14.5377 16.8443C14.6034 16.8496 14.6674 16.8679 14.726 16.898C14.8606 16.9663 15.01 17.0003 15.1609 16.9969C15.3118 16.9935 15.4595 16.9529 15.5909 16.8787C15.7223 16.8045 15.8334 16.699 15.9141 16.5715C15.9949 16.444 16.043 16.2985 16.054 16.148L16.285 13.023H15.5C15.3674 13.023 15.2402 12.9703 15.1464 12.8766C15.0527 12.7828 15 12.6556 15 12.523C15 12.3904 15.0527 12.2632 15.1464 12.1694C15.2402 12.0757 15.3674 12.023 15.5 12.023H16.36L16.451 10.777ZM21.854 14.854C21.9479 14.7601 22.0006 14.6328 22.0006 14.5C22.0006 14.3672 21.9479 14.2399 21.854 14.146C21.7601 14.0521 21.6328 13.9994 21.5 13.9994C21.3672 13.9994 21.2399 14.0521 21.146 14.146L20.09 15.203L19.633 14.469C19.561 14.3534 19.466 14.2538 19.354 14.1764C19.2419 14.099 19.1151 14.0455 18.9815 14.0192C18.8479 13.9928 18.7103 13.9942 18.5772 14.0232C18.4442 14.0523 18.3185 14.1084 18.208 14.188C18.1033 14.2661 18.0333 14.382 18.013 14.511C17.9927 14.6401 18.0237 14.7719 18.0993 14.8784C18.175 14.9849 18.2893 15.0575 18.4178 15.0808C18.5463 15.1041 18.6788 15.0762 18.787 15.003L19.363 15.929L18.146 17.146C18.0521 17.2399 17.9994 17.3672 17.9994 17.5C17.9994 17.6328 18.0521 17.7601 18.146 17.854C18.2399 17.9479 18.3672 18.0006 18.5 18.0006C18.6328 18.0006 18.7601 17.9479 18.854 17.854L19.906 16.801L20.363 17.536C20.4359 17.6533 20.5325 17.754 20.6466 17.8317C20.7607 17.9094 20.8898 17.9624 21.0256 17.9872C21.1613 18.0121 21.3008 18.0083 21.4351 17.976C21.5693 17.9438 21.6953 17.8838 21.805 17.8C21.9112 17.7206 21.9815 17.6022 22.0005 17.4709C22.0194 17.3396 21.9854 17.2062 21.906 17.1C21.8266 16.9938 21.7082 16.9235 21.5769 16.9045C21.4456 16.8856 21.3122 16.9196 21.206 16.999L20.632 16.075L21.854 14.854Z"
    fill="#494949"
  />
</svg>
