;<svg width="18" height="18" viewBox="0 0 18 18" fill="none" xmlns="http://www.w3.org/2000/svg">
  <path
    d="M3.99996 13.9998H2.33329C1.89127 13.9998 1.46734 13.8242 1.15478 13.5117C0.842221 13.1991 0.666626 12.7752 0.666626 12.3332V8.1665C0.666626 7.72448 0.842221 7.30055 1.15478 6.98799C1.46734 6.67543 1.89127 6.49984 2.33329 6.49984H15.6666C16.1087 6.49984 16.5326 6.67543 16.8451 6.98799C17.1577 7.30055 17.3333 7.72448 17.3333 8.1665V12.3332C17.3333 12.7752 17.1577 13.1991 16.8451 13.5117C16.5326 13.8242 16.1087 13.9998 15.6666 13.9998H14M3.99996 6.49984V1.49984C3.99996 1.27882 4.08776 1.06686 4.24404 0.910582C4.40032 0.754301 4.61228 0.666504 4.83329 0.666504H13.1666C13.3876 0.666504 13.5996 0.754301 13.7559 0.910582C13.9122 1.06686 14 1.27882 14 1.49984V6.49984M4.83329 10.6665H13.1666C13.6269 10.6665 14 11.0396 14 11.4998V16.4998C14 16.9601 13.6269 17.3332 13.1666 17.3332H4.83329C4.37306 17.3332 3.99996 16.9601 3.99996 16.4998V11.4998C3.99996 11.0396 4.37306 10.6665 4.83329 10.6665Z"
    stroke="#494949"
    stroke-linecap="round"
    stroke-linejoin="round"
  />
</svg>
