;<svg width="20" height="20" viewBox="0 0 20 20" fill="none" xmlns="http://www.w3.org/2000/svg">
  <path
    fill-rule="evenodd"
    clip-rule="evenodd"
    d="M9.79168 4.1665C10.1969 4.1665 10.5254 4.49499 10.5254 4.9002V14.6828C10.5254 15.088 10.1969 15.4165 9.79168 15.4165C9.38647 15.4165 9.05798 15.088 9.05798 14.6828V4.9002C9.05798 4.49499 9.38647 4.1665 9.79168 4.1665Z"
    fill="#484964"
  />
  <path
    fill-rule="evenodd"
    clip-rule="evenodd"
    d="M4.38152 9.27251C4.66805 8.98599 5.1326 8.98599 5.41912 9.27251L9.79163 13.645L14.1641 9.27251C14.4507 8.98599 14.9152 8.98599 15.2017 9.27251C15.4883 9.55904 15.4883 10.0236 15.2017 10.3101L10.3104 15.2014C10.0239 15.4879 9.55935 15.4879 9.27282 15.2014L4.38152 10.3101C4.09499 10.0236 4.09499 9.55904 4.38152 9.27251Z"
    fill="#484964"
  />
</svg>
